#!OML:ASF H:\Dans Jumps\Project 1\Capture day 1\Session 1\subject.ASF
:FULLY-SPECIFIED
:DEGREES
238
root 0.229376 16.4269 -3.82763 -0.75204 -1.69735 -0.57605
lowerback 5.11381 1.04403 -0.174537
upperback 4.98537 1.37138 0.835184
thorax 2.23911 0.665984 0.914022
lowerneck -11.537 -0.795999 -2.3787
upperneck 35.3026 -1.45863 2.61348
head 13.9716 -0.594007 1.25938
rclavicle -3.67752e-015 -4.37326e-015
rhumerus -25.5442 -19.5228 -81.4892
rradius 23.4072
rwrist 37.5716
rhand -19.9592 -25.717
rfingers 7.12502
rthumb 6.37918 -55.6009
lclavicle -3.67752e-015 -4.37326e-015
lhumerus -32.0364 13.5857 83.9867
lradius 11.1948
lwrist -8.1839
lhand -22.1869 -2.46501
lfingers 7.12502
lthumb 4.22825 27.4728
rfemur -28.061 0.327168 18.6097
rtibia 51.8421
rfoot -21.9637 -0.885237
rtoes 5.7254
lfemur -26.7991 6.50664 -17.3964
ltibia 51.6525
lfoot -16.7061 11.3954
ltoes -1.42036
239
root 0.230688 16.4979 -3.79472 -0.353629 -1.59765 -0.538076
lowerback 4.91967 1.0127 -0.257791
upperback 4.90474 1.32753 0.832919
thorax 2.26263 0.641775 0.962351
lowerneck -11.4838 -0.788925 -2.35309
upperneck 35.1364 -1.45454 2.61798
head 13.884 -0.588498 1.25481
rclavicle -2.88238e-015 3.18055e-015
rhumerus -25.7162 -19.5195 -81.345
rradius 23.5249
rwrist 37.324
rhand -19.8324 -25.5976
rfingers 7.12502
rthumb 6.50163 -55.4778
lclavicle -2.88238e-015 3.18055e-015
lhumerus -32.2327 12.8378 84.3091
lradius 11.3674
lwrist -8.06251
lhand -22.4476 -2.53665
lfingers 7.12502
lthumb 3.97659 27.406
rfemur -27.7462 0.425086 18.5272
rtibia 50.7472
rfoot -21.6216 -0.668466
rtoes 6.19386
lfemur -26.6834 6.18965 -17.4953
ltibia 50.6175
lfoot -16.1029 11.3455
ltoes -0.0178808
240
root 0.231517 16.5656 -3.76391 0.0622349 -1.45044 -0.520812
lowerback 4.73205 0.973925 -0.326629
upperback 4.82322 1.27438 0.838803
thorax 2.28213 0.61326 1.01093
lowerneck -11.4307 -0.784956 -2.32805
upperneck 34.9531 -1.45758 2.63221
head 13.7895 -0.584805 1.25299
rclavicle 2.13694e-015 -2.38542e-015
rhumerus -25.8813 -19.4543 -81.2083
rradius 23.6459
rwrist 37.0346
rhand -19.7106 -25.4509
rfingers 7.12502
rthumb 6.61922 -55.3275
lclavicle 2.13694e-015 -2.38542e-015
lhumerus -32.3889 11.9291 84.7157
lradius 11.6031
lwrist -7.71184
lhand -22.5842 -2.564
lfingers 7.12502
lthumb 3.84462 27.3811
rfemur -27.4722 0.447533 18.4659
rtibia 49.6815
rfoot -21.2653 -0.457752
rtoes 6.66755
lfemur -26.6137 5.85313 -17.5651
ltibia 49.5856
lfoot -15.5185 11.2955
ltoes 1.33697
241
root 0.232084 16.6299 -3.73512 0.493537 -1.26791 -0.527307
lowerback 4.55337 0.929716 -0.378286
upperback 4.74099 1.2145 0.855737
thorax 2.2964 0.581759 1.06105
lowerneck -11.3968 -0.800195 -2.33695
upperneck 34.7713 -1.48871 2.67304
head 13.702 -0.59415 1.26375
rclavicle -3.67752e-015 -1.39149e-015
rhumerus -26.0318 -19.345 -81.0732
rradius 23.7622
rwrist 36.7335
rhand -19.5738 -25.3059
rfingers 7.12502
rthumb 6.75123 -55.1783
lclavicle -3.67752e-015 -1.39149e-015
lhumerus -32.5054 10.9024 85.1888
lradius 11.8859
lwrist -7.08922
lhand -22.6168 -2.56622
lfingers 7.12502
lthumb 3.81315 27.3794
rfemur -27.2436 0.398567 18.431
rtibia 48.6533
rfoot -20.8961 -0.253707
rtoes 7.14741
lfemur -26.5829 5.5087 -17.5995
ltibia 48.5653
lfoot -14.9644 11.2414
ltoes 2.54008
242
root 0.232717 16.6902 -3.70811 0.935338 -1.06219 -0.552148
lowerback 4.38411 0.88424 -0.413087
upperback 4.65696 1.15336 0.880628
thorax 2.30397 0.550061 1.10953
lowerneck -11.3673 -0.821246 -2.35394
upperneck 34.5903 -1.52835 2.72115
head 13.6168 -0.607243 1.2776
rclavicle -8.69683e-015 -1.78906e-015
rhumerus -26.1771 -19.2048 -80.9348
rradius 23.8792
rwrist 36.4446
rhand -19.4388 -25.1851
rfingers 7.12502
rthumb 6.88156 -55.0533
lclavicle -8.69683e-015 -1.78906e-015
lhumerus -32.5932 9.79882 85.7023
lradius 12.2072
lwrist -6.19258
lhand -22.5418 -2.52917
lfingers 7.12502
lthumb 3.88562 27.4152
rfemur -27.0605 0.283182 18.4178
rtibia 47.6713
rfoot -20.5214 -0.047102
rtoes 7.66391
lfemur -26.5803 5.17084 -17.6043
ltibia 47.5659
lfoot -14.4536 11.1691
ltoes 3.54864
243
root 0.233778 16.7464 -3.68271 1.38244 -0.850484 -0.591498
lowerback 4.22414 0.840395 -0.433574
upperback 4.57696 1.09465 0.913439
thorax 2.31081 0.519868 1.15778
lowerneck -11.3514 -0.846183 -2.38483
upperneck 34.4136 -1.57153 2.77503
head 13.5374 -0.622837 1.29573
rclavicle -1.10822e-014 -5.36719e-015
rhumerus -26.2996 -19.0486 -80.792
rradius 23.9794
rwrist 36.1842
rhand -19.3246 -25.0905
rfingers 7.12502
rthumb 6.99184 -54.955
lclavicle -1.10822e-014 -5.36719e-015
lhumerus -32.6444 8.66631 86.2357
lradius 12.5485
lwrist -5.06103
lhand -22.4003 -2.45179
lfingers 7.12502
lthumb 4.0222 27.49
rfemur -26.923 0.11408 18.4238
rtibia 46.7434
rfoot -20.1512 0.166646
rtoes 8.20176
lfemur -26.592 4.8582 -17.5843
ltibia 46.5957
lfoot -13.9991 11.0644
ltoes 4.33163
244
root 0.235454 16.798 -3.65885 1.82731 -0.647097 -0.637176
lowerback 4.08068 0.804686 -0.440945
upperback 4.49653 1.04707 0.946441
thorax 2.30809 0.495672 1.1982
lowerneck -11.3345 -0.876285 -2.42286
upperneck 34.2455 -1.62227 2.83472
head 13.4623 -0.64188 1.31643
rclavicle -4.32357e-015 3.37934e-015
rhumerus -26.415 -18.8866 -80.6445
rradius 24.0684
rwrist 35.9579
rhand -19.2357 -25.0319
rfingers 7.12502
rthumb 7.07765 -54.8936
lclavicle -4.32357e-015 3.37934e-015
lhumerus -32.6736 7.51946 86.7668
lradius 12.9006
lwrist -3.75003
lhand -22.2122 -2.32534
lfingers 7.12502
lthumb 4.20391 27.6129
rfemur -26.829 -0.094145 18.4411
rtibia 45.8783
rfoot -19.7978 0.392138
rtoes 8.73795
lfemur -26.6029 4.58772 -17.5499
ltibia 45.6613
lfoot -13.6157 10.9149
ltoes 4.88306
